<svg width="20" height="12" viewBox="0 0 20 12" fill="none" xmlns="http://www.w3.org/2000/svg">
<path fill-rule="evenodd" clip-rule="evenodd" d="M0.25 1C0.25 0.58579 0.58579 0.25 1 0.25H19C19.4142 0.25 19.75 0.58579 19.75 1C19.75 1.41421 19.4142 1.75 19 1.75H1C0.58579 1.75 0.25 1.41421 0.25 1ZM3.25 6C3.25 5.5858 3.58579 5.25 4 5.25H16C16.4142 5.25 16.75 5.5858 16.75 6C16.75 6.4142 16.4142 6.75 16 6.75H4C3.58579 6.75 3.25 6.4142 3.25 6ZM8 10.25C7.58579 10.25 7.25 10.5858 7.25 11C7.25 11.4142 7.58579 11.75 8 11.75H12C12.4142 11.75 12.75 11.4142 12.75 11C12.75 10.5858 12.4142 10.25 12 10.25H8Z" fill="#2AAC64"/>
</svg>
