<svg width="20" height="24" viewBox="0 0 20 24" fill="none" xmlns="http://www.w3.org/2000/svg">
<path d="M0 14.0114C0 19.5608 4.3729 24.0005 9.76716 24.0005C15.1614 24.0005 19.5343 19.5608 19.5343 14.0114C19.5343 6.33231 13.7624 1.93282 11.0927 0.308629C10.734 0.0904187 10.5546 -0.0186929 10.3492 0.00325882C10.1853 0.0207664 10.0002 0.132149 9.90805 0.268718C9.79231 0.440034 9.80525 0.65822 9.83113 1.09459C10.0502 4.79162 10.5705 11.7915 6.97654 11.7915C4.69208 11.7915 4.27773 9.97339 4.20258 7.08124C4.18777 6.51138 4.18037 6.22645 4.01939 6.0565C3.89066 5.9206 3.66125 5.84349 3.47658 5.87404C3.24564 5.91224 3.08593 6.11196 2.76652 6.51138C1.55249 8.02954 0 10.6317 0 14.0114Z" fill="#117ACE"/>
</svg>
