<svg width="125" height="41" viewBox="0 0 125 41" fill="none" xmlns="http://www.w3.org/2000/svg">
<g clip-path="url(#clip0)">
<path d="M3.45811 39.9998V40.6057C3.02887 40.8307 2.54964 40.9433 2.06512 40.9331C1.68547 40.9442 1.30956 40.8553 0.9751 40.6754C0.679848 40.5037 0.435162 40.2571 0.265777 39.9605C0.0963926 39.6639 0.00831727 39.3279 0.0104552 38.9864C0.00661938 38.7254 0.0576454 38.4666 0.160231 38.2266C0.262817 37.9866 0.414673 37.7709 0.605958 37.5934C0.80057 37.4051 1.03081 37.2577 1.28316 37.1596C1.53552 37.0615 1.80492 37.0148 2.07556 37.0222C2.53889 37.0364 2.99471 37.143 3.41632 37.3357V37.9277C3.02055 37.6851 2.56753 37.5517 2.10342 37.5411C1.90254 37.5348 1.70241 37.5684 1.51468 37.6402C1.32694 37.7119 1.15536 37.8203 1.00992 37.959C0.870932 38.0952 0.760511 38.2578 0.685129 38.4372C0.609747 38.6166 0.570919 38.8092 0.570919 39.0038C0.570919 39.1984 0.609747 39.391 0.685129 39.5704C0.760511 39.7498 0.870932 39.9123 1.00992 40.0485C1.30717 40.3217 1.7 40.4668 2.10342 40.4525C2.58954 40.4373 3.06054 40.2799 3.45811 39.9998Z" fill="white"/>
<path d="M8.38935 37.0605H8.93958V40.8913H8.38935V39.2266H6.23718V40.8913H5.69043V37.0605H6.23718V38.7147H8.38935V37.0605Z" fill="white"/>
<path d="M11.3423 37.0605H13.5119V37.5481H11.889V38.7147H13.4562V39.2058H11.889V40.3968H13.5641V40.8843H11.3423V37.0605Z" fill="white"/>
<path d="M18.7529 37.0605H19.2649V40.8913H18.7146V37.9138L17.5375 39.3938H17.4366L16.2455 37.9138V40.8913H15.6953V37.0605H16.2142L17.4888 38.6346L18.7529 37.0605Z" fill="white"/>
<path d="M21.6611 37.0605H22.2114V40.8913H21.6611V37.0605Z" fill="white"/>
<path d="M27.9296 39.9999V40.6058C27.5005 40.8313 27.0212 40.9439 26.5366 40.9332C26.158 40.9447 25.7831 40.8558 25.4501 40.6755C25.1598 40.5097 24.9193 40.2692 24.7536 39.979C24.5803 39.6821 24.4901 39.3441 24.4924 39.0004C24.4886 38.7395 24.5396 38.4806 24.6422 38.2406C24.7448 38.0007 24.8966 37.7849 25.0879 37.6074C25.2786 37.4186 25.5048 37.2694 25.7534 37.1683C26.0021 37.0673 26.2682 37.0165 26.5366 37.0189C27 37.0324 27.456 37.139 27.8774 37.3323V37.9243C27.4818 37.6812 27.0286 37.5478 26.5645 37.5378C26.3641 37.5313 26.1645 37.5649 25.9773 37.6367C25.7901 37.7084 25.6191 37.8169 25.4744 37.9557C25.3355 38.0918 25.225 38.2544 25.1497 38.4338C25.0743 38.6132 25.0354 38.8058 25.0354 39.0004C25.0354 39.195 25.0743 39.3876 25.1497 39.567C25.225 39.7464 25.3355 39.909 25.4744 40.0451C25.7715 40.3186 26.1645 40.4638 26.5679 40.4491C27.0562 40.4369 27.5299 40.2806 27.9296 39.9999Z" fill="white"/>
<path d="M30.8058 37.0398H31.1924L32.9093 40.8879H32.3486L31.8367 39.7561H30.2034L29.7263 40.8879H29.1621L30.8058 37.0398ZM31.6103 39.2686L30.9939 37.8756L30.4228 39.2686H31.6103Z" fill="white"/>
<path d="M34.8945 37.0605H35.4413V40.3898H37.1651V40.8878H34.8945V37.0605Z" fill="white"/>
<path d="M43.8027 37.0605H44.3146V40.8913H43.7644V37.9138L42.5873 39.3938H42.4863L41.2953 37.9138V40.8913H40.7485V37.0605H41.2674L42.5385 38.6346L43.8027 37.0605Z" fill="white"/>
<path d="M47.3616 37.0398H47.7446L49.4615 40.8879H48.9008L48.3924 39.7561H46.7591L46.2785 40.8879H45.7144L47.3616 37.0398ZM48.166 39.2686L47.5496 37.8756L46.975 39.2686H48.166Z" fill="white"/>
<path d="M54.4836 37.0606H55.0059V40.8913H54.5323L51.9588 37.9417V40.8879H51.4434V37.0571H51.8891L54.4696 40.0312L54.4836 37.0606Z" fill="white"/>
<path d="M58.0427 37.0398H58.4292L60.1461 40.8879H59.5854L59.0735 39.7561H57.4402L56.9631 40.8879H56.3989L58.0427 37.0398ZM58.8506 39.2686L58.2307 37.8756L57.6596 39.2686H58.8506Z" fill="white"/>
<path d="M64.1923 39.0038H65.4808V40.6266C65.0426 40.8238 64.5683 40.9281 64.0878 40.9331C63.81 40.9467 63.5324 40.9047 63.2711 40.8096C63.0097 40.7146 62.77 40.5683 62.5659 40.3793C62.3817 40.2029 62.2362 39.9902 62.1385 39.7546C62.0408 39.519 61.993 39.2657 61.9983 39.0107C61.9908 38.7448 62.0394 38.4802 62.1408 38.2343C62.2422 37.9883 62.3941 37.7664 62.5868 37.5829C62.782 37.3935 63.0134 37.2453 63.2671 37.1472C63.5207 37.0491 63.7916 37.003 64.0634 37.0118C64.2709 37.0114 64.4777 37.0348 64.6798 37.0814C64.9296 37.1478 65.174 37.2328 65.4111 37.3357V37.8963C65.002 37.6451 64.533 37.508 64.053 37.4993C63.859 37.4972 63.6666 37.534 63.4871 37.6075C63.3077 37.6811 63.1448 37.79 63.0082 37.9277C62.7336 38.211 62.58 38.59 62.58 38.9846C62.58 39.3792 62.7336 39.7583 63.0082 40.0415C63.1565 40.1801 63.3306 40.288 63.5207 40.3591C63.7107 40.4302 63.9129 40.4631 64.1157 40.456C64.3842 40.4478 64.6499 40.3972 64.9027 40.3062L64.9549 40.2888V39.4913H64.2167L64.1923 39.0038Z" fill="white"/>
<path d="M67.8389 37.0605H70.0084V37.5481H68.3856V38.7147H69.9562V39.2058H68.3856V40.3968H70.0676V40.8843H67.8389V37.0605Z" fill="white"/>
<path d="M75.2495 37.0605H75.7614V40.8913H75.2111V37.9138L74.0341 39.3938H73.9331L72.7421 37.9138V40.8913H72.1953V37.0605H72.7142L73.9853 38.6346L75.2495 37.0605Z" fill="white"/>
<path d="M78.147 37.0605H80.3165V37.5481H78.6937V38.7147H80.2643V39.2058H78.6937V40.3968H80.3688V40.8843H78.147V37.0605Z" fill="white"/>
<path d="M85.5539 37.0605H86.0867V40.8913H85.6166L83.0535 37.9451V40.8913H82.5381V37.0605H82.9838L85.5644 40.0346L85.5539 37.0605Z" fill="white"/>
<path d="M87.4277 37.0535H90.6142V37.5445H89.2909V40.8877H88.7406V37.5445H87.4277V37.0535Z" fill="white"/>
<path d="M95.2107 39.2859L94.7928 39.0317C94.5788 38.9118 94.3897 38.7523 94.2356 38.5616C94.1261 38.4057 94.0688 38.2192 94.0719 38.0288C94.067 37.8908 94.0925 37.7534 94.1467 37.6264C94.2009 37.4994 94.2823 37.3859 94.3853 37.294C94.6111 37.0996 94.9026 36.9987 95.2002 37.0119C95.5132 37.0102 95.8192 37.1037 96.0778 37.28V37.9034C95.9635 37.7814 95.8262 37.6832 95.6738 37.6144C95.5214 37.5457 95.3569 37.5078 95.1898 37.5029C95.0327 37.4961 94.8776 37.54 94.7475 37.6283C94.6944 37.6625 94.6507 37.7093 94.6203 37.7647C94.5899 37.82 94.5737 37.8821 94.5734 37.9452C94.5765 38.065 94.6222 38.1798 94.7022 38.2691C94.8204 38.3956 94.9579 38.5025 95.1097 38.586L95.531 38.8332C95.7336 38.93 95.9056 39.0806 96.0285 39.2685C96.1513 39.4565 96.2202 39.6745 96.2275 39.8989C96.2323 40.038 96.2071 40.1766 96.1536 40.3052C96.1001 40.4338 96.0197 40.5494 95.9176 40.6441C95.6984 40.841 95.4111 40.9447 95.1166 40.9332C94.7392 40.9373 94.3713 40.8147 94.0719 40.5849V39.8884C94.1884 40.0587 94.3441 40.1985 94.5259 40.2961C94.7077 40.3936 94.9103 40.4461 95.1166 40.4491C95.272 40.4554 95.4244 40.4046 95.545 40.3063C95.5976 40.2647 95.6403 40.2118 95.6698 40.1515C95.6993 40.0913 95.715 40.0252 95.7156 39.9581C95.7156 39.7143 95.5485 39.4949 95.2107 39.2859Z" fill="white"/>
<path d="M100.236 37.0605H100.901L99.4873 38.8645V40.8878H98.9232V38.8645L97.5093 37.0605H98.171L99.1983 38.3804L100.236 37.0605Z" fill="white"/>
<path d="M103.269 39.2859L102.851 39.0317C102.637 38.9118 102.448 38.7523 102.294 38.5616C102.183 38.4064 102.126 38.2194 102.13 38.0288C102.126 37.8908 102.151 37.7534 102.205 37.6264C102.259 37.4994 102.341 37.3859 102.444 37.294C102.67 37.0996 102.961 36.9987 103.259 37.0119C103.573 37.0108 103.88 37.1042 104.14 37.28V37.9034C103.907 37.6574 103.587 37.5134 103.248 37.5029C103.091 37.4961 102.936 37.54 102.806 37.6283C102.753 37.6625 102.709 37.7093 102.679 37.7647C102.648 37.82 102.632 37.8821 102.632 37.9452C102.635 38.065 102.681 38.1798 102.761 38.2691C102.878 38.3964 103.016 38.5035 103.168 38.586L103.59 38.8332C103.792 38.93 103.964 39.0806 104.087 39.2685C104.21 39.4565 104.279 39.6745 104.286 39.8989C104.291 40.038 104.266 40.1766 104.212 40.3052C104.159 40.4338 104.078 40.5494 103.976 40.6441C103.757 40.8417 103.47 40.9455 103.175 40.9332C102.798 40.9373 102.43 40.8147 102.13 40.5849V39.8884C102.245 40.0563 102.398 40.1947 102.577 40.2921C102.755 40.3896 102.954 40.4434 103.158 40.4491C103.314 40.4559 103.468 40.4051 103.59 40.3063C103.642 40.2647 103.685 40.2118 103.714 40.1515C103.744 40.0913 103.76 40.0252 103.76 39.9581C103.774 39.7143 103.607 39.4949 103.269 39.2859Z" fill="white"/>
<path d="M105.425 37.0535H108.622V37.5445H107.288V40.8877H106.738V37.5445H105.425V37.0535Z" fill="white"/>
<path d="M110.408 37.0605H112.578V37.5481H110.955V38.7147H112.522V39.2058H110.955V40.3968H112.63V40.8843H110.408V37.0605Z" fill="white"/>
<path d="M117.819 37.0605H118.331V40.8913H117.777V37.9138L116.6 39.3938H116.499L115.308 37.9138V40.8913H114.758V37.0605H115.277L116.551 38.6346L117.819 37.0605Z" fill="white"/>
<path d="M1.96412 7.72754V33.1496H0V7.72754H1.96412Z" fill="white"/>
<path d="M18.6975 19.5332L28.3544 7.7276H30.3429V33.1497H28.3614V10.6041L18.6905 22.4863L8.98137 10.6041V33.1462H7.03467V7.72412H9.00226L18.6975 19.5332Z" fill="white"/>
<path d="M55.2704 7.72754L44.6175 33.4004H44.0394L33.3447 7.72754H35.3367L44.3459 29.2353L53.2854 7.72754H55.2704Z" fill="white"/>
<path d="M72.157 7.7276V9.36785H60.2434V19.5367H71.8331V21.1943H60.2434V31.5094H72.4321V33.1462H58.2793V7.72412L72.157 7.7276Z" fill="white"/>
<path d="M78.8225 7.7276V31.5094H91.3977V33.1462H76.8584V7.72412L78.8225 7.7276Z" fill="white"/>
<path d="M104.822 7.41758C106.589 7.37977 108.345 7.69618 109.988 8.34812C111.63 9.00006 113.125 9.97434 114.385 11.2135C115.626 12.4122 116.612 13.8482 117.285 15.4361C117.959 17.0239 118.306 18.7311 118.306 20.456C118.306 22.1808 117.959 23.888 117.285 25.4759C116.612 27.0637 115.626 28.4998 114.385 29.6985C111.804 32.1339 108.39 33.4906 104.842 33.4906C101.293 33.4906 97.8787 32.1339 95.2978 29.6985C94.0615 28.4975 93.0787 27.0607 92.4076 25.4732C91.7364 23.8856 91.3906 22.1796 91.3906 20.456C91.3906 18.7324 91.7364 17.0263 92.4076 15.4388C93.0787 13.8512 94.0615 12.4144 95.2978 11.2135C96.5501 9.97483 98.0385 9.00051 99.6747 8.34843C101.311 7.69634 103.061 7.37979 104.822 7.41758ZM104.892 31.6556C106.378 31.6867 107.854 31.4147 109.232 30.856C110.609 30.2974 111.858 29.4639 112.902 28.4065C114.993 26.281 116.165 23.4186 116.165 20.4368C116.165 17.455 114.993 14.5927 112.902 12.4672C111.857 11.4109 110.608 10.5783 109.231 10.0203C107.854 9.46233 106.378 9.19053 104.892 9.2215C103.398 9.19037 101.913 9.46186 100.526 10.0196C99.1392 10.5774 97.8797 11.41 96.8232 12.4672C95.7764 13.5137 94.946 14.7561 94.3795 16.1236C93.813 17.491 93.5214 18.9567 93.5214 20.4368C93.5214 21.917 93.813 23.3826 94.3795 24.7501C94.946 26.1175 95.7764 27.36 96.8232 28.4065C97.879 29.4648 99.1384 30.2983 100.525 30.8567C101.912 31.4151 103.397 31.6869 104.892 31.6556Z" fill="white"/>
<path d="M121.653 7.7311L118.307 5.79832V1.93278L121.653 0L125 1.93278V5.79832L121.653 7.7311ZM118.968 5.41525L121.653 6.96495L124.338 5.41525V2.31585L121.653 0.766146L118.968 2.31585V5.41525Z" fill="#2AAC64"/>
</g>
<defs>
<clipPath id="clip0">
<rect width="125" height="40.933" fill="white"/>
</clipPath>
</defs>
</svg>
