<svg width="20" height="21" viewBox="0 0 20 21" fill="none" xmlns="http://www.w3.org/2000/svg">
<path d="M10.0003 18.7616C14.6027 18.7616 18.3337 15.0307 18.3337 10.4283C18.3337 5.82593 14.6027 2.09497 10.0003 2.09497C5.39795 2.09497 1.66699 5.82593 1.66699 10.4283C1.66699 15.0307 5.39795 18.7616 10.0003 18.7616Z" fill="#F2F2FB"/>
<path d="M10.0003 18.7616C14.6027 18.7616 18.3337 15.0307 18.3337 10.4283C18.3337 5.82593 14.6027 2.09497 10.0003 2.09497C5.39795 2.09497 1.66699 5.82593 1.66699 10.4283C1.66699 15.0307 5.39795 18.7616 10.0003 18.7616Z" fill="white"/>
<path d="M10.0003 18.7616C14.6027 18.7616 18.3337 15.0307 18.3337 10.4283C18.3337 5.82593 14.6027 2.09497 10.0003 2.09497C5.39795 2.09497 1.66699 5.82593 1.66699 10.4283C1.66699 15.0307 5.39795 18.7616 10.0003 18.7616Z" stroke="#2AAC64" stroke-width="0.516679" stroke-linecap="round" stroke-linejoin="round"/>
<path d="M6.66626 10.4275H13.3329" stroke="#2AAC64" stroke-width="1.03336" stroke-linecap="round" stroke-linejoin="round"/>
</svg>
