<svg width="17" height="17" viewBox="0 0 17 17" fill="none" xmlns="http://www.w3.org/2000/svg">
<path d="M8.16032 9.09456C8.52851 9.09456 8.82699 8.79609 8.82699 8.4279C8.82699 8.05971 8.52851 7.76123 8.16032 7.76123C7.79213 7.76123 7.49365 8.05971 7.49365 8.4279C7.49365 8.79609 7.79213 9.09456 8.16032 9.09456Z" fill="#2AAC64" stroke="#2AAC64" stroke-width="2" stroke-linecap="round" stroke-linejoin="round"/>
<path d="M8.16032 4.42806C8.52851 4.42806 8.82699 4.12958 8.82699 3.76139C8.82699 3.3932 8.52851 3.09473 8.16032 3.09473C7.79213 3.09473 7.49365 3.3932 7.49365 3.76139C7.49365 4.12958 7.79213 4.42806 8.16032 4.42806Z" fill="#2AAC64" stroke="#2AAC64" stroke-width="2" stroke-linecap="round" stroke-linejoin="round"/>
<path d="M8.16032 13.7613C8.52851 13.7613 8.82699 13.4628 8.82699 13.0946C8.82699 12.7265 8.52851 12.428 8.16032 12.428C7.79213 12.428 7.49365 12.7265 7.49365 13.0946C7.49365 13.4628 7.79213 13.7613 8.16032 13.7613Z" fill="#2AAC64" stroke="#2AAC64" stroke-width="2" stroke-linecap="round" stroke-linejoin="round"/>
</svg>
