<svg width="24" height="24" viewBox="0 0 24 24" fill="none" xmlns="http://www.w3.org/2000/svg">
<path d="M1.04883 12.0072L11.993 22.9514L22.939 12.0054C19.2892 8.35968 15.6466 4.70678 11.9948 1.06299L1.04883 12.0072Z" fill="white"/>
<path d="M6.12067 6.13522L0.248779 12.0071L6.12106 17.8794L11.993 23.7513L17.866 17.8782L23.7391 12.0052L17.868 6.13405C14.6391 2.90513 11.9961 0.262939 11.9949 0.262939C11.9937 0.262939 9.35037 2.90553 6.12067 6.13522ZM16.9378 7.06426L21.8787 12.0052L16.9358 16.948L11.9926 21.8913L7.05206 16.948L2.11155 12.0048L7.05245 7.06387C9.76985 4.34647 11.9937 2.12336 11.9949 2.12336C11.9961 2.12336 14.2204 4.34687 16.9378 7.06426Z" fill="#FF0000"/>
<path d="M12.0011 5.03101C11.2723 6.42291 12.1603 7.20861 11.1814 9.25899C10.662 8.84403 10.9631 7.29326 9.93165 7.26728C10.0904 7.74349 9.97158 7.92847 9.94513 8.10044C9.84252 8.76736 9.60442 9.36337 10.0674 10.2497C9.35619 9.90411 9.34438 9.27008 8.74305 8.87246C8.86211 9.5471 8.57541 10.9151 9.37414 12.2258C8.6624 12.1558 8.42636 11.8822 7.65601 11.144C8.45998 15.3088 9.0581 15.4258 12.0063 15.6621C11.7841 15.6361 10.2987 15.3988 9.76067 13.687C9.73013 13.2631 9.71337 14.0595 11.142 14.0859C10.2374 12.6533 10.4839 12.9245 10.5897 12.0911C10.9642 12.6615 10.6361 12.7113 11.6943 13.1346C11.3588 12.0686 12.2122 11.3392 12.027 10.1222C12.2608 10.6567 13.0926 10.5725 13.0529 13.1388C13.7416 12.3704 13.8237 12.9022 14.1545 12.0424C14.1736 12.5211 14.3837 13.1171 13.4477 14.0984C13.6858 14.1645 14.0845 14.2157 14.7327 13.7792C14.1016 14.4945 14.672 14.5113 13.0757 15.6818C15.0864 15.7082 16.407 14.4425 16.3596 11.6611C16.3067 11.8992 16.2475 12.3746 15.1627 12.5201C15.8422 11.845 16.1963 10.5007 15.6539 9.38956C15.463 9.56715 15.1662 10.3929 14.4519 10.631C14.8142 10.0366 14.7327 9.26728 14.7327 9.26728C14.7327 9.26728 14.8251 8.22827 14.2114 7.42582C14.0395 8.68251 14.0538 9.31445 13.2602 9.51287C13.3879 8.77119 13.4114 8.4258 13.0146 7.57919C12.6001 6.69496 12.1201 5.8247 12.0011 5.03101ZM8.68088 16.3802V16.744V17.1087H12.2197H15.7586L15.7576 16.745L15.7565 16.3823L12.2197 16.3813L8.68088 16.3802Z" fill="black"/>
</svg>
