<svg width="12" height="12" viewBox="0 0 12 12" fill="none" xmlns="http://www.w3.org/2000/svg">
<path fill-rule="evenodd" clip-rule="evenodd" d="M6 0.923077C3.19609 0.923077 0.923077 3.19609 0.923077 6C0.923077 8.80388 3.19609 11.0769 6 11.0769C8.80388 11.0769 11.0769 8.80388 11.0769 6C11.0769 3.19609 8.80388 0.923077 6 0.923077ZM0 6C0 2.68629 2.68629 0 6 0C9.31372 0 12 2.68629 12 6C12 9.31372 9.31372 12 6 12C2.68629 12 0 9.31372 0 6ZM6 3.07692C6.25489 3.07692 6.46154 3.28356 6.46154 3.53846V6.61539C6.46154 6.87028 6.25489 7.07692 6 7.07692C5.74511 7.07692 5.53846 6.87028 5.53846 6.61539V3.53846C5.53846 3.28356 5.74511 3.07692 6 3.07692ZM6 9.07692C6.33988 9.07692 6.61539 8.80142 6.61539 8.46154C6.61539 8.12166 6.33988 7.84615 6 7.84615C5.66012 7.84615 5.38462 8.12166 5.38462 8.46154C5.38462 8.80142 5.66012 9.07692 6 9.07692Z" fill="#F05453"/>
</svg>
