<svg width="13" height="13" viewBox="0 0 13 13" fill="none" xmlns="http://www.w3.org/2000/svg">
<path fill-rule="evenodd" clip-rule="evenodd" d="M1.5 6.33333C1.5 3.66396 3.66396 1.5 6.33333 1.5C9.00273 1.5 11.1667 3.66396 11.1667 6.33333C11.1667 9.00273 9.00273 11.1667 6.33333 11.1667C3.66396 11.1667 1.5 9.00273 1.5 6.33333ZM6.33333 0.5C3.11167 0.5 0.5 3.11167 0.5 6.33333C0.5 9.555 3.11167 12.1667 6.33333 12.1667C7.76413 12.1667 9.07467 11.6515 10.0895 10.7966L11.9798 12.6869C12.1751 12.8821 12.4916 12.8821 12.6869 12.6869C12.8821 12.4916 12.8821 12.1751 12.6869 11.9798L10.7966 10.0895C11.6515 9.07467 12.1667 7.76413 12.1667 6.33333C12.1667 3.11167 9.555 0.5 6.33333 0.5Z" fill="#2AAC64"/>
</svg>
