<svg width="40" height="41" viewBox="0 0 40 41" fill="none" xmlns="http://www.w3.org/2000/svg">
<g clip-path="url(#clip0)">
<path d="M1.74609 20.9071L19.9864 39.1474L38.2298 20.904C32.1467 14.8279 26.0757 8.73973 19.9895 2.66675L1.74609 20.9071Z" fill="white"/>
<path d="M10.2006 11.1201L0.414062 20.9066L10.2012 30.6938L19.9877 40.4803L29.7761 30.6918L39.5646 20.9034L29.7794 11.1182C24.3979 5.73667 19.9929 1.33301 19.991 1.33301C19.989 1.33301 15.5834 5.73732 10.2006 11.1201ZM28.229 12.6685L36.4639 20.9034L28.2251 29.1421L19.987 37.3802L11.7529 29.1415L3.51869 20.9027L11.7535 12.6679C16.2825 8.1389 19.989 4.43372 19.991 4.43372C19.9929 4.43372 23.7001 8.13955 28.229 12.6685Z" fill="#FF0000"/>
<path d="M21.7468 10.3766C21.7419 10.3772 21.7386 10.3823 21.7347 10.3921C21.7314 10.4019 21.1081 12.1787 20.3495 14.342C19.591 16.5053 18.9687 18.2783 18.9661 18.2816C18.9583 18.2894 18.9033 18.2696 18.9039 18.2591C18.9046 18.2519 20.5249 13.2102 20.5412 13.1659C20.5432 13.1606 20.4947 13.1279 20.3962 13.0691C20.2493 12.9817 20.2321 12.9723 20.2321 12.9828C20.2321 12.9919 18.8824 18.2531 18.8798 18.2557C18.8785 18.2576 18.8417 18.2491 18.7986 18.2367C18.6954 18.2073 18.5201 18.1716 18.4065 18.1572C18.2792 18.1416 17.9895 18.1409 17.8746 18.1572C17.338 18.2323 16.9032 18.4542 16.524 18.8446C16.2576 19.1188 16.0456 19.4743 15.9333 19.836C15.9196 19.8791 15.9065 19.9163 15.9039 19.9189C15.9013 19.9215 15.6952 19.7707 15.4445 19.5821C15.1939 19.3934 14.9864 19.2399 14.9851 19.2418C14.9838 19.2432 15.009 19.2949 15.0404 19.3576L15.0974 19.4716L15.4912 19.7358C15.8717 19.991 15.883 20.0003 15.8798 20.0173C15.8765 20.0336 15.8893 20.0494 15.9989 20.1676C16.0662 20.2407 16.1402 20.3196 16.163 20.3437L16.2062 20.3869L16.3219 20.38L16.4376 20.3731L16.6552 20.5182C16.7747 20.5972 16.8649 20.6551 16.8538 20.646C16.8434 20.6369 16.7568 20.5703 16.6621 20.4992C16.5681 20.4287 16.4952 20.3703 16.4998 20.3697C16.5044 20.369 16.6553 20.3604 16.8349 20.3507L17.1613 20.3334L17.6311 20.57C17.8909 20.6993 18.1058 20.8049 18.1077 20.8049C18.1097 20.8049 18.2277 20.6642 18.372 20.4906C18.5162 20.3176 18.6386 20.1711 18.6431 20.1659C18.6503 20.1574 18.6314 20.108 18.5309 19.8619C18.4649 19.7006 18.4121 19.5679 18.4134 19.5665C18.4147 19.5659 18.5792 19.583 18.7796 19.6045C18.98 19.6261 19.1448 19.6428 19.1475 19.6408C19.1494 19.6382 19.1757 19.5385 19.2045 19.4197L19.258 19.2021L19.4203 19.2004C19.5098 19.1997 19.6077 19.2012 19.6397 19.2039L19.6984 19.209L19.1423 19.817C18.8355 20.1505 18.5795 20.4313 18.5723 20.4405C18.5475 20.4698 18.7686 20.2483 19.2856 19.7254L19.7951 19.209L19.9851 19.2056L20.1734 19.2021L20.1406 19.1538C20.1216 19.127 20.0859 19.0802 20.0611 19.0501C20.0363 19.0201 20.0173 18.994 20.0179 18.9914C20.0192 18.9888 20.0902 18.9148 20.1751 18.8273L20.3288 18.6702L20.3461 18.7064C20.3552 18.7273 20.3616 18.7464 20.3616 18.7496C20.3616 18.7601 20.3702 18.7568 20.6293 18.6374C20.7631 18.576 20.8754 18.5287 20.878 18.532C20.8806 18.5346 20.9052 18.6182 20.9333 18.7168C20.9607 18.8154 20.986 18.899 20.9886 18.9016C20.9931 18.9068 21.7826 18.2693 21.8055 18.2418C21.8107 18.2347 21.9089 18.0561 22.0231 17.8446C22.1373 17.6325 22.2385 17.4475 22.2476 17.4318C22.2568 17.4162 22.2608 17.4029 22.2563 17.4042C22.2523 17.4055 22.0898 17.54 21.8953 17.7013L21.5412 17.9931L21.2874 18.0001C21.147 18.0033 21.0221 18.0048 21.011 18.0035C20.9921 18.0016 21.1324 17.8588 23.3858 15.5838C24.7025 14.2548 25.7813 13.165 25.7813 13.1624C25.7813 13.1598 25.7189 13.0958 25.6431 13.0208C25.5139 12.8915 25.5051 12.8853 25.4946 12.8964C25.4887 12.9023 24.3934 14.0947 23.0611 15.5458L20.6397 18.1849L20.448 18.3196C20.3429 18.3933 20.2533 18.4573 20.2494 18.4612C20.2448 18.4658 20.2499 18.4825 20.2649 18.5165C20.2832 18.5595 20.2848 18.5671 20.277 18.5769C20.2698 18.586 20.0179 18.8639 19.9696 18.9154C19.9578 18.9278 19.9573 18.9271 19.9005 18.8722C19.7902 18.7632 19.6858 18.6793 19.5585 18.5925L19.4963 18.5493L20.6967 16.4871C21.6432 14.861 21.8949 14.4239 21.8884 14.418C21.8845 14.4134 21.8225 14.3747 21.752 14.3317L21.6224 14.2522L21.6 14.2919C21.5882 14.3141 21.1017 15.2751 20.5188 16.4267C19.9176 17.616 19.4567 18.5199 19.4514 18.5199C19.4449 18.5199 19.4457 18.5121 19.4549 18.4854C19.4621 18.4671 20.0989 16.6911 20.8711 14.5389C21.644 12.3867 22.2748 10.624 22.2735 10.6201C22.2709 10.6142 21.8016 10.3948 21.752 10.3766C21.75 10.3759 21.7484 10.3763 21.7468 10.3766H21.7468ZM19.3651 13.3904L19.2977 13.5579L19.2321 13.7272L19.1043 13.6771C19.0331 13.649 18.9733 13.6278 18.9713 13.6305C18.9693 13.6331 18.9392 13.7744 18.9039 13.9448C18.8693 14.1152 18.8403 14.2602 18.8383 14.266C18.8363 14.2739 18.8651 14.2896 18.9696 14.3386C19.0446 14.3738 19.1079 14.405 19.1112 14.4077C19.1138 14.4103 19.1459 14.5255 19.1837 14.6633C19.2209 14.8003 19.2532 14.9141 19.2545 14.9154C19.2558 14.9167 19.3091 14.8408 19.3737 14.7462C19.4964 14.5667 19.4961 14.5672 19.8832 14.1469L19.9039 14.1244L19.7917 13.7617L19.6794 13.399L19.6311 13.3956C19.6043 13.393 19.5339 13.391 19.4739 13.3904H19.3651V13.3904ZM28.2666 15.0018C28.264 15.0018 28.26 15.0095 28.258 15.0173C28.2378 15.0846 28.0309 15.7246 28.0283 15.7272C28.027 15.7291 27.8871 15.7366 27.7174 15.7444L27.4083 15.7583L27.3202 15.8239C27.2719 15.8611 27.2317 15.8923 27.2304 15.893C27.2284 15.8949 27.1462 16.4212 27.1475 16.4232C27.1501 16.4252 27.6291 16.6995 27.6311 16.6995C27.6324 16.6995 27.7194 16.6069 27.8245 16.494C27.9302 16.3811 28.0177 16.2878 28.0197 16.2885C28.0216 16.2885 28.1946 16.4063 28.4048 16.5493L28.7865 16.8083L28.7882 16.7134C28.7889 16.6611 28.7887 16.4481 28.7848 16.2418L28.7779 15.8671L28.524 15.4336C28.3843 15.1959 28.2692 15.0018 28.2666 15.0018H28.2666ZM21.7709 15.266L21.7589 15.2816C21.7523 15.2901 21.7132 15.3465 21.6708 15.4059L21.5948 15.513L21.5464 15.7548C21.5203 15.888 21.4981 16.0032 21.4981 16.0104C21.4987 16.0196 21.5535 16.0712 21.669 16.171C21.7631 16.252 21.8413 16.3178 21.8452 16.3178C21.8485 16.3178 21.9075 16.2509 21.9747 16.1693L22.0974 16.0191L22.125 15.8843C22.14 15.8106 22.1556 15.7332 22.1595 15.7116L22.1665 15.6719L22.0922 15.4716C22.0517 15.3619 22.0164 15.2704 22.0145 15.2678C22.0119 15.2651 21.9843 15.2925 21.9523 15.3265L21.8953 15.3887L21.8331 15.3265L21.7709 15.266ZM25.7623 15.6235C25.759 15.6235 24.3199 16.6367 22.562 17.8757C20.804 19.1153 19.3655 20.13 19.3668 20.1313C19.3675 20.1326 20.809 19.2407 22.5689 18.1486L25.7675 16.1624V15.8912C25.7675 15.7431 25.7649 15.6229 25.7623 15.6235H25.7623ZM25.1302 17.3852L25.0007 17.5303L24.8694 17.6736L24.8072 17.8412C24.7726 17.9332 24.7444 18.0091 24.745 18.0104C24.7477 18.013 25.8858 18.1495 25.8884 18.1469C25.8897 18.1462 25.719 17.9734 25.5102 17.7652L25.1302 17.3852ZM30.3789 17.4854C30.3756 17.4847 27.8405 18.1401 24.745 18.9431C21.6496 19.746 19.1168 20.4046 19.1181 20.4059C19.1201 20.4079 30.5332 17.8226 30.5378 17.8187C30.5417 17.8161 30.3841 17.4867 30.3789 17.4854ZM23.7468 18.2591C23.7435 18.2598 22.8999 18.6571 21.8711 19.1434C20.8423 19.6297 19.9955 20.0307 19.9903 20.0346C19.9831 20.0398 19.9855 20.0402 19.9972 20.0363C20.02 20.0285 23.7789 18.5782 23.7796 18.5769C23.7802 18.5769 23.7753 18.5055 23.7675 18.418C23.7597 18.3221 23.7513 18.2591 23.7468 18.2591V18.2591ZM31.9022 18.6512C31.8937 18.6518 29.1123 19.1238 25.7191 19.6995C22.3266 20.2746 19.5417 20.7462 19.5326 20.7462C19.5215 20.7468 19.4931 20.7273 19.4428 20.6874L19.3668 20.627L19.3633 20.8774L19.3599 21.1279L19.1647 21.2608C19.057 21.3333 18.9655 21.3915 18.9609 21.3921C18.9564 21.3921 18.8738 21.3369 18.7779 21.2678C18.5233 21.0837 18.5195 21.0843 18.7623 21.2729C18.8537 21.3441 18.9324 21.4033 18.935 21.4059C18.9416 21.4118 18.6281 21.6233 18.619 21.6201C18.6144 21.6188 17.8441 20.9625 17.6535 20.798L17.6103 20.76L17.2528 21.0691C17.0563 21.2395 16.8927 21.38 16.8901 21.38C16.8869 21.38 16.6846 21.3272 16.4411 21.2626L15.9989 21.1451L16.1233 21.1486C16.1918 21.1505 16.2953 21.1518 16.3547 21.1538C16.4572 21.1564 16.1651 21.1345 15.8159 21.1123C15.7512 21.1077 15.4009 21.084 15.0387 21.0605L14.3789 21.0173L14.3772 20.9983C14.3733 20.9761 14.3759 20.977 14.3184 20.9966C14.2773 21.0103 14.2713 21.0096 14.144 21.0018C14.0722 20.9979 13.9978 20.9934 13.9782 20.9914L13.9419 20.9862L13.9108 20.9292L13.8798 20.874L13.657 20.8619C13.5342 20.8554 13.4179 20.8515 13.3996 20.8515H13.3668L13.3374 20.8981L13.3098 20.9465L13.277 20.9431C13.2587 20.9424 12.5755 20.8988 11.7589 20.8446C10.9422 20.7911 10.2631 20.7472 10.2494 20.7479L10.2252 20.7496L10.3012 20.8308C10.3671 20.9026 10.3794 20.9135 10.3996 20.9154C10.4127 20.9167 11.0587 20.9428 11.8349 20.9741C12.611 21.0055 13.2491 21.0326 13.2511 21.0346C13.253 21.0365 13.2218 21.0913 13.182 21.1572C13.1428 21.2225 13.1114 21.28 13.1146 21.2833C13.1173 21.2859 13.212 21.3533 13.3236 21.4336L13.5257 21.5804L13.7485 21.6166C13.8706 21.6375 13.9754 21.6531 13.9799 21.6512C13.9845 21.6499 14.0181 21.5985 14.0559 21.5372L14.125 21.4249H14.2666H14.4083V21.4007C14.4083 21.387 14.4033 21.3094 14.3962 21.2298C14.389 21.1495 14.3838 21.0832 14.3858 21.0812C14.3897 21.0773 15.7955 21.1313 15.8314 21.1365C15.8484 21.1391 15.8521 21.1411 15.8521 21.1555C15.8521 21.1796 15.8865 21.3314 15.9126 21.4215C15.9348 21.4972 15.9349 21.4976 15.9212 21.5009C15.914 21.5022 14.1842 21.7004 12.0784 21.9413C9.9725 22.1829 8.25001 22.3817 8.24936 22.3817C8.2474 22.383 8.23358 22.5508 8.23554 22.5527C8.23685 22.5534 9.96598 22.3199 12.0784 22.0346C14.1908 21.7493 15.924 21.5165 15.9298 21.5165C15.937 21.5165 15.946 21.5305 15.9557 21.5579C15.9642 21.5808 15.9835 21.6274 15.9972 21.6633C16.0109 21.6985 16.021 21.7282 16.0197 21.7289C16.0183 21.7295 14.7255 22.0159 13.1457 22.3645C11.566 22.7131 10.2686 23.002 10.2614 23.0052C10.2504 23.0098 10.2436 23.0266 10.2286 23.1037C10.2182 23.1546 10.2129 23.1984 10.2148 23.2004C10.2181 23.203 16.0056 21.7773 16.0317 21.7669C16.0357 21.7656 16.0483 21.7838 16.0594 21.8066C16.0737 21.8353 16.0767 21.8496 16.0715 21.8515C16.0669 21.8528 15.6309 21.9707 15.1008 22.1123L14.1354 22.3679L14.1233 22.4664C14.1161 22.5205 14.1105 22.5659 14.1112 22.5665C14.1118 22.5672 14.5622 22.4199 15.1112 22.2384C16.1126 21.9081 16.1192 21.9059 16.1198 21.9327C16.1198 21.9366 15.4165 22.3194 14.5568 22.7842L12.992 23.6287L12.9972 23.6909C12.9998 23.7248 13.0015 23.7635 13.0041 23.7772L13.0093 23.8014L14.562 22.8878C15.4165 22.3851 16.1209 21.9698 16.1267 21.9672C16.1352 21.962 16.1476 21.9779 16.1906 22.0484C16.2396 22.1294 16.3058 22.2237 16.3737 22.3092C16.3998 22.3432 16.4014 22.348 16.391 22.3558C16.3851 22.3598 15.562 23.0169 14.562 23.8152L12.745 25.2678L12.8728 25.3938C12.944 25.463 13.0075 25.5218 13.0127 25.5251C13.0206 25.5297 13.2635 25.3081 14.0991 24.5424C14.6918 23.9986 15.1772 23.5555 15.1785 23.5562C15.1799 23.5575 15.1706 23.5772 15.1595 23.5994C15.1485 23.6209 15.1406 23.641 15.1406 23.6443C15.1406 23.6488 15.3198 23.8516 15.3616 23.8947C15.3727 23.9058 15.3786 23.9042 15.5032 23.8481L15.6328 23.7893L15.6984 23.855L15.764 23.9189L15.8936 23.8412L16.0248 23.7617L16.0749 23.5942C16.103 23.5015 16.1244 23.4215 16.125 23.4163C16.125 23.4104 16.0757 23.3754 16.0058 23.3317L15.8884 23.2574L15.6984 23.2539L15.5102 23.2505L15.9747 22.8239C16.23 22.5902 16.4398 22.399 16.4411 22.399C16.4417 22.399 16.4941 22.4493 16.5568 22.5113C16.6195 22.5733 16.7005 22.6484 16.7364 22.6771C17.1718 23.0257 17.6666 23.1947 18.1993 23.1797C18.6177 23.1679 18.9899 23.0498 19.3444 22.8187C19.4906 22.7234 19.5825 22.6487 19.7157 22.5182L19.7986 22.4387L21.0404 23.4387C21.7245 23.9897 22.2843 24.4394 22.2856 24.4387C22.2863 24.4374 22.2538 24.36 22.2114 24.266L22.1354 24.095L20.9817 23.2488L19.8279 22.4042L19.8504 22.3766C19.8628 22.3622 19.8962 22.3203 19.9229 22.285C19.9504 22.2504 19.9756 22.2222 19.9782 22.2228C19.9815 22.2242 20.6777 22.7675 21.5257 23.4301C22.3737 24.0927 23.0778 24.6425 23.0922 24.6529L23.1181 24.6719L23.1924 24.5976C23.2335 24.5565 23.2673 24.5208 23.2666 24.5182C23.2653 24.5162 22.5389 23.9889 21.6518 23.3472C20.7653 22.7055 20.0342 22.1769 20.0283 22.171C20.0178 22.1612 20.0198 22.1562 20.0576 22.0968C20.0831 22.0569 20.1008 22.0344 20.106 22.0363C20.1106 22.0383 20.7696 22.4401 21.5706 22.931C22.3709 23.4212 23.0281 23.82 23.03 23.8187C23.0313 23.8167 22.9967 23.7423 22.9523 23.6529L22.8711 23.4906L21.4998 22.7375L20.1285 21.9845L20.1751 21.893C20.2012 21.8427 20.2335 21.7788 20.2459 21.7513L20.2684 21.7013L21.1181 21.9206C21.5855 22.0414 21.9687 22.1425 21.9713 22.1451C21.9765 22.1504 21.9113 22.2418 21.9022 22.2418C21.8989 22.2418 21.7834 22.22 21.6483 22.1952C21.5125 22.1698 21.3979 22.1503 21.3927 22.1503C21.3855 22.1503 21.3568 22.1961 21.3098 22.2816L21.2373 22.4146L21.4083 22.5406C21.5023 22.6105 21.6209 22.6979 21.6725 22.7358L21.7658 22.8049L22.4601 22.9241C22.8413 22.9893 23.1548 23.0411 23.1561 23.0398C23.1581 23.0378 23.1703 22.8611 23.1768 22.7462L23.1785 22.7064L23.0646 22.5752L22.9506 22.4456L22.8089 22.3852C22.7306 22.3519 22.6684 22.3237 22.669 22.323C22.6697 22.3224 23.1134 22.4355 23.6552 22.5752C24.197 22.7149 24.6448 22.8291 24.65 22.8291C24.6546 22.8291 24.657 22.8271 24.657 22.8239C24.657 22.8213 24.6766 22.6878 24.7001 22.5286C24.7236 22.3693 24.7422 22.2397 24.7416 22.2384C24.7403 22.2377 23.7427 22.0962 22.524 21.9258C21.3059 21.7554 20.3077 21.6145 20.3064 21.6132C20.305 21.6119 20.3181 21.5665 20.3357 21.513C20.354 21.4595 20.3685 21.4118 20.3685 21.4059C20.3685 21.3987 20.3209 21.3795 20.1975 21.3351L20.0266 21.2747L19.992 21.2142C19.9731 21.1822 19.959 21.154 19.9609 21.152C19.9622 21.1501 20.9207 21.195 22.0905 21.2505L24.2165 21.3507L24.2338 21.3679L24.2511 21.3869L24.6362 21.4128L25.0197 21.4387L25.0421 21.4146L25.0646 21.3904L27.783 21.5199C29.2786 21.5904 30.5026 21.6466 30.5032 21.646C30.5046 21.6447 30.453 21.6056 30.391 21.5579L30.2787 21.4698L27.7174 21.3904C26.3087 21.3453 25.1527 21.3081 25.1475 21.3075C25.1422 21.3062 25.2193 21.2133 25.3323 21.0847C25.4393 20.9633 25.5253 20.8625 25.524 20.8619C25.5233 20.8606 25.2154 20.7237 24.84 20.5579C24.4647 20.3921 24.157 20.2542 24.1544 20.2522C24.1518 20.2509 24.0666 20.329 23.9661 20.4249L23.783 20.5994L23.524 20.6857C23.3823 20.7334 23.2645 20.7736 23.2632 20.7755C23.2612 20.7768 23.2869 20.8825 23.3202 21.0104C23.3535 21.1384 23.3774 21.2461 23.3754 21.2488C23.3728 21.2507 22.6036 21.227 21.6656 21.1969C20.7282 21.1676 19.9584 21.1445 19.9558 21.1451C19.9531 21.1451 19.9382 21.1214 19.9212 21.0933C19.8918 21.045 19.885 21.0378 19.7088 20.8982L19.5257 20.7548L19.5602 20.7496C19.5792 20.747 22.3664 20.3687 25.7537 19.9085L31.9126 19.0726L31.916 18.8619V18.6512H31.9022V18.6512ZM14.5274 19.6667C14.5272 19.6681 14.5282 19.6705 14.5291 19.6736C14.5318 19.6808 14.5433 19.7127 14.5551 19.7427L14.5775 19.7963L15.5982 20.2885C16.159 20.5587 16.6194 20.7779 16.6207 20.7773C16.6213 20.7759 16.1661 20.5324 15.6086 20.2367C15.0518 19.941 14.5798 19.691 14.5602 19.6805C14.5363 19.6668 14.528 19.6625 14.5274 19.6667ZM13.6311 20.2643C13.6291 20.2643 13.5855 20.3015 13.5326 20.3472C13.4797 20.3929 13.4385 20.4316 13.4411 20.4336C13.4476 20.4388 16.4838 20.9124 16.4877 20.9085C16.4903 20.9066 13.6421 20.2636 13.6311 20.2643ZM16.5084 20.9102C16.5012 20.9096 16.4972 20.9117 16.4998 20.9137C16.5017 20.9157 16.5073 20.9157 16.5119 20.9137C16.5171 20.9117 16.5156 20.9102 16.5084 20.9102ZM13.9834 21.0588L14.0283 21.0622C14.0524 21.0648 14.0817 21.0668 14.0922 21.0674C14.1085 21.0674 14.1065 21.0705 14.0732 21.0829C14.0053 21.1091 14.0085 21.1091 13.9955 21.0829L13.9834 21.0588V21.0588ZM24.0214 21.1451C24.0253 21.1451 24.0565 21.1742 24.0905 21.2108L24.1509 21.2781L24.0404 21.2729C23.979 21.2703 23.8588 21.2669 23.7727 21.2643C23.6865 21.2623 23.6206 21.2576 23.6259 21.2557C23.6428 21.2498 24.0149 21.1458 24.0214 21.1451V21.1451ZM16.4877 21.1589C16.4861 21.1596 16.4864 21.1614 16.4877 21.1624C16.4897 21.1644 16.4952 21.1644 16.4998 21.1624C16.505 21.1604 16.5018 21.1589 16.4946 21.1589C16.491 21.1586 16.4893 21.1583 16.4877 21.1589H16.4877ZM11.5119 21.3558C11.5093 21.3552 11.4177 21.4221 11.3081 21.5044L11.1095 21.6512L11.1077 21.7306C11.1058 21.8083 11.1055 21.8109 11.1198 21.8135C11.144 21.8187 12.2091 21.9157 12.2183 21.9137C12.2248 21.9117 11.5249 21.3591 11.5119 21.3558ZM12.8366 22.6287C12.8366 22.6346 13.2359 23.019 13.2425 23.019C13.2464 23.019 13.3129 22.9927 13.3893 22.9621L13.5274 22.9068V22.7859V22.665H13.5102C13.4873 22.665 12.9279 22.6344 12.8763 22.6304C12.8535 22.6285 12.8366 22.6274 12.8366 22.6287V22.6287ZM11.3703 23.6443C11.3683 23.6443 11.3647 23.649 11.3633 23.6529C11.3614 23.6575 11.3304 23.762 11.2925 23.8861L11.2235 24.1123L11.2442 24.1417C11.3571 24.299 11.6375 24.681 11.6414 24.6823C11.644 24.6829 11.6571 24.6517 11.6708 24.6132C11.6845 24.574 11.7131 24.4936 11.7347 24.4336L11.7727 24.3247L11.7969 24.3213C11.8106 24.3193 11.8664 24.3153 11.9212 24.3127L12.0197 24.3092L12.0974 24.2246L12.1751 24.1417L12.2165 24.0156C12.2387 23.9471 12.2541 23.8908 12.2528 23.8895C12.2489 23.8856 11.8852 23.7496 11.878 23.7496C11.8741 23.7496 11.8476 23.7798 11.8176 23.817C11.7876 23.8548 11.7582 23.8839 11.7537 23.8826C11.7498 23.8813 11.6627 23.8281 11.5602 23.7634C11.4578 23.6982 11.3722 23.6443 11.3703 23.6443Z" fill="black"/>
</g>
<defs>
<clipPath id="clip0">
<rect width="40" height="40" fill="white" transform="translate(-0.000976562 0.894775)"/>
</clipPath>
</defs>
</svg>
