<svg width="40" height="41" viewBox="0 0 40 41" fill="none" xmlns="http://www.w3.org/2000/svg">
<g clip-path="url(#clip0)">
<path d="M19.9991 40.4813L39.5909 20.8894L19.9991 1.29761L0.407227 20.8894L19.9991 40.4813Z" fill="#FF0000"/>
<path d="M20.0014 37.3734L3.52246 20.8944L20.0014 4.41553L36.4803 20.8944L20.0014 37.3734Z" fill="white"/>
<path d="M12.1729 20.8784H27.4763H12.1729Z" fill="black"/>
<path d="M12.1729 20.8784H27.4763" stroke="black" stroke-width="0.919388"/>
<path d="M25.1813 23.6431L26.9761 24.9378L25.2695 25.7596L27.5661 25.9658L26.9478 26.7876H28.2159L28.2453 27.6997L12.2344 27.6124C12.2344 27.6124 14.9119 26.8189 15.3527 27.1424C15.9416 26.8774 20.2398 25.0526 20.2398 25.1724L25.1813 23.6431ZM16.119 23.7585L16.2072 19.1109L13.8823 17.8483C13.8823 17.8483 13.5291 17.6126 13.0289 17.7601C12.8521 17.8189 12.617 17.8777 12.617 17.8777C12.617 17.8777 13.885 16.8181 14.1179 16.9068C14.3536 16.9949 16.0014 17.7895 16.0014 17.7895C16.0014 17.7895 15.8246 16.5536 15.3832 16.2004C14.9419 15.8472 13.2352 14.4937 13.2352 14.4937V14.1699L15.5601 15.5827C15.5601 15.5827 15.6483 14.2292 15.1791 13.4347C14.7084 12.6401 14.3574 11.9337 14.3574 11.9337L14.5043 11.8162L15.6526 13.5816L16.0336 12.3734L16.2692 12.3147C16.2692 12.3147 15.9748 14.0213 16.181 14.5514C16.3873 15.0809 17.1519 17.9653 17.1519 17.9653L18.3002 16.3163C18.3002 16.3163 18.3296 15.6393 18.2708 15.168C18.2121 14.6973 18.1239 12.5193 18.1239 12.5193H18.3302L18.654 14.903L20.5097 12.7549V12.9906C20.5097 12.9906 18.6861 15.2872 18.7742 15.7879C18.8624 16.288 18.9506 16.5824 18.6273 17.2888C18.304 17.9952 18.0978 18.497 18.0978 18.497C18.0978 18.497 19.0687 17.3487 19.5106 17.2611C19.9519 17.2317 20.5397 17.2904 20.9517 16.9373C21.3636 16.5841 22.3644 15.4679 22.3644 15.4679L20.8047 17.8787C20.8047 17.8787 20.0695 17.9081 19.7756 18.2319C19.4812 18.5558 18.2746 19.9386 18.2746 19.9386V23.1168L20.2752 24.1171L17.8333 24.4703L17.2444 25.3236L16.4499 24.6466L14.2393 24.8499L16.119 23.7585Z" fill="black" stroke="black" stroke-width="0.73551"/>
<path d="M19.3291 25.1181C19.8891 24.8846 20.7985 24.4998 21.3296 23.7347C21.8793 22.9434 23.8308 19.615 26.5106 19.8816C26.3636 20.2348 25.8923 21 25.8923 21L27.8025 20.4111C27.8025 20.4111 27.8319 22.9418 24.2123 24.5581C22.5351 25.1469 22.1824 25.1763 22.0355 25.3799C21.8885 25.5861 21.2137 26.6158 21.2137 26.6158L18.2129 25.2933C18.2129 25.2933 18.9781 25.2653 19.3291 25.1184V25.1181Z" fill="white" stroke="black" stroke-width="0.919388"/>
<path d="M26.3551 22.1699C26.5339 22.1699 26.6789 22.0449 26.6789 21.8908C26.6789 21.7366 26.5339 21.6116 26.3551 21.6116C26.1762 21.6116 26.0312 21.7366 26.0312 21.8908C26.0312 22.0449 26.1762 22.1699 26.3551 22.1699Z" fill="black"/>
</g>
<defs>
<clipPath id="clip0">
<rect width="40" height="40" fill="white" transform="translate(-0.000976562 0.894775)"/>
</clipPath>
</defs>
</svg>
