<svg width="40" height="41" viewBox="0 0 40 41" fill="none" xmlns="http://www.w3.org/2000/svg">
<g clip-path="url(#clip0)">
<path d="M1.74609 20.9071L19.9864 39.1474L38.2298 20.904C32.1467 14.8279 26.0757 8.73973 19.9895 2.66675L1.74609 20.9071Z" fill="white"/>
<path d="M10.2005 11.1201L0.414062 20.9066L10.2012 30.6938L19.9877 40.4803L29.7761 30.6918L39.5646 20.9034L29.7794 11.1182C24.3979 5.73667 19.9929 1.33301 19.991 1.33301C19.989 1.33301 15.5834 5.73732 10.2005 11.1201ZM28.229 12.6685L36.4639 20.9034L28.2258 29.1415L19.987 37.3802L11.7529 29.1415L3.51934 20.9021L11.7535 12.6679C16.2825 8.1389 19.989 4.43372 19.991 4.43372C19.9929 4.43372 23.7001 8.13955 28.229 12.6685Z" fill="#FF0000"/>
<path d="M24.1847 16.8118C24.1311 16.8116 24.077 16.8142 24.043 16.8204C23.9771 16.8328 11.2614 20.2467 11.2157 20.2643C10.8554 20.4059 10.6136 20.7987 10.5404 21.3627C10.5254 21.477 10.5184 21.6855 10.5249 21.8187C10.5353 22.0348 10.5636 22.2188 10.6164 22.4335C10.8319 23.3083 11.3761 23.9956 11.9584 24.1261C12.0263 24.1411 12.1859 24.1454 12.2537 24.133C12.3112 24.1232 24.9116 20.7445 25.0396 20.7047C25.2831 20.629 25.4664 20.459 25.6009 20.1848C25.676 20.0327 25.7213 19.8856 25.7598 19.6702C25.7905 19.5004 25.8169 19.4275 25.8893 19.3178C25.9774 19.184 26.1301 19.0699 26.2848 19.0242C26.3103 19.017 26.9392 18.8485 27.6821 18.6494C28.4249 18.4497 29.0487 18.2786 29.0689 18.2695C29.3692 18.1317 29.4785 17.6931 29.3056 17.323C29.2102 17.12 29.0376 16.9701 28.8548 16.9309C28.7928 16.9179 28.6981 16.9194 28.6354 16.9344C28.6067 16.9416 27.9881 17.1071 27.2589 17.3023C26.5304 17.4981 25.9175 17.6621 25.898 17.6667C25.8745 17.6726 25.8228 17.6753 25.7477 17.6753C25.6224 17.6747 25.5743 17.6664 25.4731 17.6252C25.3464 17.573 25.2666 17.5094 25.138 17.3593C24.9455 17.1347 24.7717 16.993 24.5784 16.9016C24.4955 16.8631 24.4063 16.8341 24.328 16.8204C24.2921 16.8142 24.2382 16.8119 24.1847 16.8118Z" fill="black"/>
</g>
<defs>
<clipPath id="clip0">
<rect width="40" height="40" fill="white" transform="translate(-0.000976562 0.894775)"/>
</clipPath>
</defs>
</svg>
