<svg width="40" height="41" viewBox="0 0 40 41" fill="none" xmlns="http://www.w3.org/2000/svg">
<g clip-path="url(#clip0)">
<path d="M1.74609 20.9071L19.9864 39.1474L38.2298 20.904C32.1467 14.8279 26.0757 8.73973 19.9895 2.66675L1.74609 20.9071Z" fill="white"/>
<path d="M10.2006 11.1201L0.414062 20.9066L10.2012 30.6938L19.9877 40.4803L29.7761 30.6918L39.5646 20.9034L29.7794 11.1182C24.3979 5.73667 19.9929 1.33301 19.991 1.33301C19.989 1.33301 15.5834 5.73732 10.2006 11.1201ZM28.229 12.6685L36.4639 20.9034L28.2251 29.1421L19.987 37.3802L11.7529 29.1415L3.51869 20.9027L11.7535 12.6679C16.2825 8.1389 19.989 4.43372 19.991 4.43372C19.9929 4.43372 23.7001 8.13955 28.229 12.6685Z" fill="#FF0000"/>
<path d="M19.8227 6.73584C19.2124 7.39635 19.8208 10.114 18.5602 12.6616C17.9067 11.9645 17.6446 10.6571 16.9039 10.0035C17.2947 11.0057 16.2061 10.9186 16.5982 14.4042C16.0064 14.2563 15.9882 14.0125 14.6811 12.444C14.9245 13.965 14.7699 14.9278 15.0749 16.627C15.0749 16.627 14.7598 16.5607 13.2441 15.4491C13.7361 17.1062 12.8767 20.5952 14.8348 23.0623L14.8279 23.0571C14.9786 25.2896 16.5523 27.1337 18.6483 27.6909H14.8607V29.2954H25.4238V27.6909H21.3046C23.201 27.1867 24.6685 25.6286 25.0421 23.6823V23.6806C25.5612 22.8508 27.8831 20.1649 26.0973 15.8429C26.0973 15.8429 25.5734 16.8034 24.6155 17.0623C24.6155 17.0623 25.8428 15.0164 24.8331 13.3593C24.8331 13.3593 24.5371 14.5701 23.5274 14.6219C23.5274 14.6219 24.0189 12.0395 22.6984 10.3956C22.2191 11.4848 22.9854 11.9362 21.391 12.836C21.1728 9.48 20.4763 8.91434 19.8227 6.73584V6.73584ZM19.4739 14.0554C20.0826 14.43 20.5206 15.0743 20.6535 16.2833C20.7119 16.8151 20.9107 17.1199 21.0559 17.6598C20.7077 17.5856 20.3466 17.5459 19.9764 17.5459C19.5241 17.5459 19.0855 17.6039 18.6673 17.7134C18.5746 15.9521 19.4965 16.3388 19.4739 14.0554ZM17.2528 15.3196C17.2528 15.3196 17.4965 16.8549 18.1181 17.8913C17.6801 18.0606 17.2714 18.2889 16.9004 18.5649C16.6962 16.9732 17.1587 16.6133 17.2528 15.3196ZM22.6552 16.1037C22.6552 16.1037 22.8834 17.641 23.1941 18.6719C22.7018 18.2786 22.1357 17.9737 21.5205 17.7807C21.7798 17.2501 22.1786 16.5514 22.6552 16.1037ZM14.8555 17.8032C14.8555 17.8032 15.3181 18.2698 16.5274 18.8688C16.1031 19.2503 15.7428 19.7017 15.4635 20.2039C15.2749 19.5863 15.0103 18.6543 14.8555 17.8032ZM25.0956 18.3697C25.1362 18.9378 25.1369 20.3201 24.878 21.0709L24.8797 21.0968C24.651 20.3994 24.2778 19.7677 23.7951 19.2367C24.1064 18.9879 24.6358 18.5911 25.0956 18.3697H25.0956ZM19.9315 18.9725C21.9671 18.9725 23.6189 20.626 23.6189 22.6616C23.6189 24.6971 21.9671 26.349 19.9315 26.349C17.896 26.349 16.2441 24.6971 16.2441 22.6616C16.2441 20.626 17.896 18.9725 19.9315 18.9725Z" fill="black"/>
</g>
<defs>
<clipPath id="clip0">
<rect width="40" height="40" fill="white" transform="translate(-0.000976562 0.894775)"/>
</clipPath>
</defs>
</svg>
