<svg width="40" height="41" viewBox="0 0 40 41" fill="none" xmlns="http://www.w3.org/2000/svg">
<g clip-path="url(#clip0)">
<path d="M19.9991 40.4813L39.5909 20.8894L19.9991 1.29761L0.407227 20.8894L19.9991 40.4813Z" fill="#FF0000"/>
<path d="M20.0014 37.3733L3.52246 20.8944L20.0014 4.41553L36.4803 20.8944L20.0014 37.3733Z" fill="white"/>
<path d="M12.6963 21.7981C12.0922 21.7981 11.7221 21.5886 11.548 21.2468H7.19531V23.2365H18.0416V21.2468H14.096C13.8277 21.5908 13.3047 21.7981 12.6941 21.7981" fill="black"/>
<path d="M13.6954 21.0576C13.8723 21.0576 14.1259 20.9722 14.3305 20.5624C14.3773 20.4693 14.3866 20.3507 14.3969 20.2249C14.4024 20.1596 14.4111 20.0546 14.4263 20.0143C14.4459 20.0007 14.4911 19.9811 14.5232 19.967C14.6435 19.9142 14.8083 19.8424 14.8949 19.6693C14.9433 19.5724 14.9575 19.4766 14.9575 19.3852C14.9575 19.3166 14.9493 19.2508 14.9417 19.1882C14.9335 19.1224 14.9264 19.0592 14.9264 18.9939C14.9264 18.9716 14.9265 18.9493 14.9292 18.9264C14.939 18.8122 15.1398 18.5645 15.3205 18.4051L15.0445 18.0911C14.9607 18.1645 14.5422 18.5482 14.5123 18.8905C14.5009 19.0249 14.5145 19.1387 14.5264 19.2388C14.5406 19.358 14.5477 19.4282 14.5205 19.4826C14.5014 19.5202 14.4241 19.5545 14.355 19.5844C14.2484 19.6312 14.1281 19.6834 14.0611 19.8059C14.0024 19.9142 13.9909 20.0551 13.9795 20.1917C13.9746 20.2543 13.967 20.3496 13.955 20.3779C13.9191 20.4492 13.8815 20.5069 13.8429 20.5498C13.8168 20.6217 13.7716 20.7245 13.6943 20.8356V21.0576" fill="black"/>
<path d="M13.1533 20.7969L13.3922 21.1398C13.5288 21.0445 13.6268 20.9368 13.6975 20.8356C13.7748 20.7251 13.8194 20.6222 13.8461 20.5498C13.8559 20.5226 13.8635 20.4998 13.869 20.4829C13.9065 20.3659 13.8788 20.2549 13.8543 20.1575C13.8287 20.0552 13.814 19.9893 13.8423 19.9273C13.875 19.8543 13.9305 19.8108 14.0007 19.7558C14.0807 19.6932 14.1803 19.6149 14.2423 19.4837C14.3196 19.3215 14.2744 19.1425 14.2309 18.97C14.2004 18.8486 14.1688 18.7229 14.1857 18.6271L13.7743 18.5542C13.7661 18.5988 13.7628 18.6429 13.7628 18.687C13.7628 18.8236 13.7955 18.9542 13.826 19.0728C13.8428 19.1398 13.8673 19.2361 13.8673 19.2851C13.8673 19.2938 13.8673 19.3009 13.8652 19.3063C13.8467 19.3455 13.8086 19.3765 13.7433 19.4282C13.6513 19.5006 13.537 19.5904 13.4624 19.7547C13.4238 19.8407 13.4107 19.924 13.4107 20.0002C13.4107 20.1003 13.433 20.189 13.4505 20.2581C13.4586 20.2908 13.4706 20.3387 13.4711 20.3583C13.4281 20.49 13.353 20.6576 13.155 20.7937" fill="black"/>
<path d="M11.3171 19.9424C11.3449 19.9941 11.3628 20.0425 11.3748 20.0883C11.4162 20.1149 11.4771 20.1546 11.4891 20.1742C11.5076 20.2232 11.4902 20.3609 11.4782 20.4523C11.4744 20.4823 11.4706 20.5111 11.4679 20.5394C11.5675 20.639 11.7242 20.7544 11.8086 20.7968L11.6513 21.1119C11.7291 21.2229 11.82 21.334 11.9027 21.4249L12.2118 21.1435C12.0339 20.9476 11.9087 20.7571 11.8788 20.6733C11.8787 20.6695 11.8787 20.6657 11.8787 20.6602C11.8787 20.6238 11.8874 20.5541 11.8939 20.5057C11.9043 20.4235 11.9157 20.3359 11.9157 20.2493C11.9157 20.171 11.9065 20.0932 11.8792 20.0219C11.8243 19.8782 11.6953 19.796 11.5924 19.7302C11.5315 19.6915 11.4482 19.6382 11.4439 19.6044C11.4428 19.5957 11.4422 19.5876 11.4422 19.5789C11.4422 19.537 11.4553 19.494 11.4787 19.421C11.513 19.3149 11.5582 19.1745 11.5582 18.9693C11.5582 18.9416 11.5571 18.9127 11.5554 18.8828L11.138 18.9078C11.1484 19.082 11.1152 19.1843 11.0803 19.2942C11.0477 19.396 11.0101 19.5119 11.0281 19.6572C11.0292 19.6643 11.0303 19.6708 11.0314 19.6779C11.1282 19.7291 11.2414 19.8025 11.3171 19.9429" fill="black"/>
<path d="M10.4352 19.0773C10.4423 19.159 10.4292 19.2167 10.4145 19.2842C10.3889 19.399 10.3574 19.5416 10.4521 19.7299C10.5364 19.898 10.6812 19.9704 10.7867 20.0227C10.8722 20.0651 10.9217 20.0918 10.9495 20.1418C10.9838 20.205 10.9799 20.2485 10.9734 20.3209C10.9658 20.4091 10.9549 20.5304 11.0316 20.661C11.1568 20.8744 11.4828 21.1024 11.6216 21.1715L11.651 21.1127L11.8082 20.7976C11.7233 20.7552 11.5666 20.6403 11.4676 20.5402C11.4344 20.507 11.4077 20.4754 11.3919 20.4488C11.3843 20.4363 11.3838 20.4205 11.3897 20.3579C11.3957 20.2904 11.4033 20.1979 11.3745 20.0891C11.3625 20.0433 11.3446 19.9944 11.3168 19.9432C11.2406 19.8028 11.128 19.7293 11.0306 19.6782C11.0104 19.6678 10.9908 19.6575 10.9723 19.6482C10.8831 19.6042 10.845 19.5824 10.8254 19.5427C10.7982 19.4882 10.8014 19.467 10.8221 19.3739C10.8395 19.2945 10.864 19.1862 10.8515 19.0409C10.8276 18.765 10.6142 18.5337 10.4423 18.3481L10.3155 18.2061L9.99219 18.4705L10.1353 18.6316C10.2638 18.7704 10.4232 18.9435 10.4352 19.0768" fill="black"/>
<path d="M12.2879 19.36C12.2879 19.6811 12.3652 20.1127 12.7418 20.1127C13.1178 20.1127 13.2174 19.6262 13.2174 19.427C13.2174 19.2512 12.9502 18.5067 12.8854 17.8324C12.8022 17.8313 12.7325 17.8074 12.6743 17.7693C12.616 18.5257 12.2852 19.0678 12.2852 19.3584" fill="black"/>
<path d="M18.184 13.2752C17.3622 13.4058 13.6071 14.0806 13.2479 14.1514C12.714 14.2537 12.5894 13.7704 12.3467 13.655C12.3467 13.655 12.7064 15.7682 12.7276 15.9255C12.8027 16.4904 12.4163 16.781 12.4163 17.2033C12.4163 17.3563 12.4827 17.6387 12.677 17.7666C12.7353 17.8047 12.8049 17.8281 12.8882 17.8297C12.8909 17.8297 12.8931 17.8297 12.8958 17.8297C13.2615 17.8297 13.3399 17.464 13.3399 17.1854C13.3399 16.7544 13.1309 16.5062 13.1309 16.4017C13.1309 16.2972 13.218 16.1753 13.5489 16.1231C13.8797 16.0708 18.0169 15.3525 18.6699 15.2469C19.323 15.1413 19.8063 14.6069 19.7018 14.0583C19.5973 13.5087 19.0095 13.144 18.1867 13.2746L18.184 13.2752ZM18.4697 14.8159C17.9124 14.8507 13.0438 15.3209 13.0438 15.3209L12.9393 14.633C12.9393 14.633 17.7557 13.7971 18.3216 13.7024C18.8876 13.6066 19.2882 13.833 19.2882 14.19C19.2882 14.547 19.027 14.7821 18.4719 14.817" fill="black"/>
<path d="M27.1458 17.5588C27.0332 18.14 26.791 18.6978 26.791 18.8508C26.791 19.0499 26.8503 19.5474 27.2264 19.5474C27.6024 19.5474 27.7216 19.1049 27.7216 18.7855C27.7216 18.5319 27.4996 18.1215 27.4065 17.5283C27.3521 17.5523 27.2901 17.5664 27.2188 17.5664C27.1932 17.5664 27.1698 17.5637 27.1469 17.5593" fill="black"/>
<path d="M21.098 15.1261C21.7511 15.2306 26.3279 15.9931 26.6599 16.0459C26.8488 16.0758 27.0033 16.2004 27.0033 16.2521C27.0033 16.3038 26.8014 16.497 26.8014 16.8361C26.8014 17.0951 26.8417 17.5033 27.1421 17.5593C27.1644 17.5637 27.1883 17.5664 27.2139 17.5664C27.2852 17.5664 27.3473 17.5528 27.4017 17.5283C27.627 17.4287 27.7162 17.1479 27.7162 16.8921C27.7162 16.2951 27.406 16.4127 27.4806 15.8472C27.5013 15.6905 27.8028 13.641 27.8028 13.641C27.559 13.7542 27.4942 14.1754 26.9603 14.0731C26.5973 14.0034 22.3998 13.229 21.578 13.0984C20.7562 12.9678 20.1979 13.3955 20.0923 13.9441C19.9867 14.4927 20.4449 15.0211 21.098 15.1256V15.1261ZM21.5878 13.5065C22.1543 13.5996 27.2531 14.4916 27.2531 14.4916L27.1486 15.1795C27.1486 15.1795 21.8752 14.718 21.32 14.6831C20.7628 14.6483 20.5103 14.4567 20.5103 14.0997C20.5103 13.7427 20.9543 13.4031 21.59 13.5076" fill="black"/>
<path d="M28.99 18.2117C28.9927 18.2705 28.9944 18.3026 28.9623 18.375C28.9013 18.51 28.7952 18.6781 28.6357 18.7162L28.731 19.1233C28.9122 19.0808 29.1658 18.9464 29.3459 18.5464C29.42 18.3832 29.414 18.2689 29.4102 18.1905C29.4069 18.1252 29.4053 18.098 29.4608 18.0104C29.5005 17.9483 29.5114 17.9456 29.5587 17.9331C29.6659 17.9048 29.7889 17.8585 29.8951 17.661C30.0159 17.4357 29.9767 17.2485 29.9484 17.1113C29.9332 17.0362 29.9206 16.9774 29.9304 16.9159C29.9451 16.8223 30.011 16.7505 30.1367 16.6215C30.2047 16.5513 30.282 16.4719 30.3604 16.3723L30.0338 16.1138C29.9696 16.1959 29.9032 16.264 29.839 16.3298C29.6997 16.473 29.556 16.621 29.5196 16.8501C29.4978 16.9867 29.5217 17.1026 29.5413 17.1957C29.5664 17.3176 29.5756 17.3747 29.5288 17.4623C29.5005 17.5157 29.4994 17.5157 29.4548 17.5276C29.3498 17.5554 29.2273 17.6 29.1098 17.7856C28.9927 17.9701 28.9884 18.092 28.9944 18.2106" fill="black"/>
<path d="M28.2787 18.9197C28.479 18.7433 28.541 18.6797 28.6325 18.3858C28.6918 18.1948 28.6782 18.0685 28.6673 17.9673C28.6586 17.8867 28.6526 17.8285 28.6798 17.7246C28.694 17.6712 28.6989 17.6691 28.7571 17.6375C28.8463 17.5896 28.9955 17.5096 29.0613 17.2506C29.1217 17.0127 29.0531 16.8631 29.0031 16.7537C28.9639 16.6688 28.9405 16.6171 28.9612 16.5055L28.5497 16.4304C28.5062 16.6715 28.5737 16.8195 28.6232 16.9273C28.6624 17.0127 28.6804 17.0519 28.6564 17.145C28.6357 17.2261 28.621 17.2337 28.5595 17.2669C28.4763 17.3115 28.3364 17.3866 28.2755 17.6146C28.2276 17.7937 28.2406 17.9134 28.251 18.0097C28.2602 18.0946 28.2662 18.1512 28.2325 18.259C28.1721 18.4533 28.1655 18.4593 28.0017 18.6029L27.9043 18.6895L28.184 19.0002L28.2776 18.9169" fill="black"/>
<path d="M25.1783 17.5257C25.2256 17.7352 25.3747 17.8272 25.4836 17.8947C25.5826 17.9562 25.6164 17.9812 25.63 18.0471C25.6518 18.1494 25.642 18.1788 25.6273 18.2223C25.5979 18.3094 25.5756 18.4008 25.6202 18.5586C25.6986 18.8362 25.7824 18.9265 26.061 19.2046L26.3565 18.9091C26.0926 18.6452 26.0708 18.6147 26.0218 18.4438C26.0088 18.3981 26.0099 18.3948 26.0229 18.3551C26.0534 18.2637 26.0801 18.1575 26.0382 17.96C25.9859 17.714 25.815 17.609 25.7024 17.5393C25.6169 17.4865 25.5935 17.4675 25.5854 17.4343C25.5707 17.3679 25.5865 17.3173 25.6218 17.2177C25.6643 17.0969 25.7176 16.9467 25.6926 16.7317L25.2773 16.7807C25.2915 16.8988 25.2632 16.9782 25.2278 17.0784C25.187 17.1943 25.1358 17.3396 25.1777 17.5262" fill="black"/>
<path d="M24.8995 17.4167C24.8995 17.3421 24.8881 17.2556 24.8532 17.1522C24.7564 16.8676 24.6557 16.7576 24.5392 16.6308L24.4222 16.498L24.1006 16.7647L24.2317 16.9133C24.3368 17.0276 24.3896 17.0853 24.4581 17.2866C24.4941 17.3927 24.4832 17.4483 24.4674 17.5321C24.4467 17.6398 24.4179 17.7873 24.5104 17.9957C24.6127 18.2254 24.7656 18.282 24.8674 18.3195C24.9349 18.3446 24.9468 18.3489 24.9708 18.3995C25.0111 18.4866 25.0062 18.5117 24.9964 18.5568C24.9839 18.6167 24.9626 18.7168 25.0209 18.848C25.0954 19.0178 25.306 19.4183 25.6473 19.4684L25.7082 19.0548C25.6244 19.0423 25.4905 18.8779 25.4034 18.6798L25.4002 18.67L25.4056 18.6423C25.4143 18.6009 25.4219 18.5568 25.4219 18.5068C25.4219 18.4311 25.4051 18.3413 25.3507 18.2232C25.2543 18.0159 25.109 17.962 25.0127 17.9266C24.9409 17.9 24.924 17.894 24.8935 17.8254C24.8728 17.7786 24.8652 17.7454 24.8652 17.7117C24.8652 17.6817 24.8712 17.6518 24.8788 17.611C24.8892 17.5571 24.9017 17.4934 24.9017 17.4161" fill="black"/>
<path d="M27.6291 19.8554C27.2193 20.1869 26.3018 20.2125 25.8169 19.7706L25.7145 19.6775L25.5888 19.7357C25.4022 19.8223 25.1535 19.8293 24.9537 19.8348C24.6996 19.8418 24.4988 19.8478 24.3959 20.0084C24.3213 20.1248 24.3284 20.2859 24.416 20.4432C24.4302 20.4693 24.4471 20.4954 24.4656 20.5216H25.3771C25.0381 20.5216 24.8601 20.3616 24.7943 20.2603C24.8476 20.2565 24.9113 20.2538 24.9657 20.2527C25.166 20.2467 25.4071 20.2359 25.6356 20.1608C25.8849 20.3507 26.1891 20.4595 26.4993 20.5009C26.7241 20.2364 27.1034 20.1395 27.3254 20.1395V20.4525C27.4985 20.4073 27.6579 20.3403 27.7913 20.2538C28.0133 20.3496 28.3246 20.5384 28.5412 20.6696C28.7295 20.7839 28.8226 20.8399 28.8846 20.8633C29.074 20.9363 29.8642 21.001 30.3535 21.001V20.5831C29.8005 20.5831 29.1388 20.5101 29.0364 20.4731C29.0033 20.4595 28.8683 20.3779 28.7605 20.312C28.4792 20.1412 28.0939 19.9071 27.8299 19.8168L27.7216 19.7809L27.6329 19.8527" fill="black"/>
<path d="M25.3744 20.519H23.8152C23.1132 20.519 23.0381 20.949 23.0381 21.0997C23.0381 21.1416 23.043 21.195 23.0577 21.2521H23.6911C23.505 21.2521 23.4457 21.1792 23.4457 21.1014C23.4457 21.0235 23.517 20.9381 23.8152 20.9381H26.3181C26.3317 20.7683 26.3921 20.6301 26.4792 20.5201H25.3744" fill="black"/>
<path d="M26.7418 20.9382H26.8016L28.0511 20.6465L27.3382 20.5203H27.3252V20.5562C27.3197 20.5562 26.8022 20.5796 26.7412 20.9371" fill="black"/>
<path d="M22.8173 21.2539C22.4146 21.2539 22.1436 21.5701 22.1436 21.8656C22.1436 22.1475 22.3939 22.4876 22.838 22.4876H22.968C22.998 22.3271 23.1259 22.0985 23.6021 22.0724V22.0697H22.8402C22.6834 22.0697 22.568 21.9162 22.5637 21.8651C22.5637 21.8106 22.6399 21.6719 22.8195 21.6719H25.5346V21.2539H22.8195" fill="black"/>
<path d="M22.9652 22.4839C22.9587 22.5182 22.957 22.5487 22.957 22.5743C22.957 22.9171 23.2591 23.1963 23.7734 23.1963H23.7832C23.8615 22.9645 24.1472 22.8012 24.5271 22.7805V22.7778H23.7734C23.5143 22.7778 23.3728 22.6428 23.3728 22.5737C23.3728 22.5144 23.5328 22.4834 23.6906 22.4834H25.5285V22.0654H23.6906C23.658 22.0654 23.6275 22.0665 23.5976 22.0682C23.1214 22.0943 22.9935 22.3228 22.9636 22.4834" fill="black"/>
<path d="M23.787 23.1968C23.7728 23.2387 23.7646 23.2828 23.7646 23.3285C23.7646 23.5908 23.9997 23.8727 24.5244 23.9189C24.9042 23.9505 26.5434 24.0022 26.8438 24.0022C27.0887 24.0022 28.1151 23.969 28.668 23.8079C28.8313 23.76 28.9701 23.6958 29.1034 23.6338C29.3908 23.4999 29.6879 23.3617 30.3333 23.3617V22.9437C29.5948 22.9437 29.2395 23.1091 28.9271 23.2545C28.8025 23.3121 28.6849 23.3671 28.551 23.4063C28.0868 23.5418 27.1372 23.5837 26.8438 23.5837C26.5663 23.5837 24.9282 23.5325 24.5587 23.5021C24.2931 23.4798 24.1826 23.378 24.1826 23.3285C24.1919 23.3029 24.3198 23.1968 24.6136 23.1968H26.2963L25.8936 22.7788H24.6136C24.5859 22.7788 24.5581 22.7799 24.5309 22.7815C24.1505 22.8022 23.8653 22.9649 23.787 23.1968Z" fill="black"/>
<path d="M26.4972 20.4975C26.4912 20.5046 26.4852 20.5111 26.4798 20.5182C26.3927 20.6281 26.3323 20.7663 26.3187 20.9361C26.3171 20.9595 26.3154 20.9829 26.3154 21.0074C26.3154 21.396 26.5201 22.0741 27.8915 22.2477L27.9437 21.833C27.4915 21.7758 26.7356 21.5924 26.7356 21.0074C26.7356 20.9824 26.7377 20.9584 26.7416 20.9361C26.8031 20.5775 27.3201 20.5552 27.3255 20.5552V20.1372C27.104 20.1372 26.7214 20.2341 26.4994 20.498" fill="black"/>
</g>
<defs>
<clipPath id="clip0">
<rect width="40" height="40" fill="white" transform="translate(-0.000976562 0.894775)"/>
</clipPath>
</defs>
</svg>
